<?xml version="1.0" encoding="UTF-8"?>
<svg width="240px" height="241px" viewBox="0 0 240 241" version="1.1" xmlns="http://www.w3.org/2000/svg" xmlns:xlink="http://www.w3.org/1999/xlink">
    <!-- Generator: Sketch 52.4 (67378) - http://www.bohemiancoding.com/sketch -->
    <title>JOM_LOGO</title>
    <desc>Created with Sketch.</desc>
    <defs>
        <linearGradient x1="50%" y1="100%" x2="50%" y2="0%" id="linearGradient-1">
            <stop stop-color="#08AEEA" offset="0%"></stop>
            <stop stop-color="#08EABE" offset="100%"></stop>
        </linearGradient>
        <linearGradient x1="50%" y1="100%" x2="50%" y2="2.18569364%" id="linearGradient-2">
            <stop stop-color="#0588B7" offset="0%"></stop>
            <stop stop-color="#08E8BF" offset="100%"></stop>
        </linearGradient>
    </defs>
    <g id="Page-1" stroke="none" stroke-width="1" fill="none" fill-rule="evenodd">
        <g id="Group-4">
            <path d="M40,160 C53.3333333,160 60,166.333333 60,179 C60,193 66.6666667,200 80,200 C100,200 138.175781,200 160,200 C173.333333,200 180,193 180,179 L180,-1.42108547e-14 L220.000542,-1.42108547e-14 L220,199 C220,226.046968 206.666667,239.713635 180,240 C140,240.429548 100,240.429548 60,240 C33.3333333,239.713635 20,226.380301 20,200 L20,179 C20,166.333333 26.6666667,160 40,160 Z" id="Path" fill="url(#linearGradient-1)"></path>
            <path d="M40,160 C53.3333333,160 60,166.333333 60,179 C60,193 66.6666667,200 80,200 C100,200 138.175781,200 160,200 C173.333333,200 180,193 180,179 L180,-5.82645043e-13 L200,-5.82645043e-13 L200,179 C200,206.046968 186.666667,219.713635 160,220 C120,220.429548 75.7298864,220 60,220 C49.5134091,220 42.8467424,213.333333 40,200 L40,179 C40,170.234601 34.6262696,165.851902 23.8788088,165.851902 C28.5936891,159.610178 40,160 40,160 Z" id="Path" fill="url(#linearGradient-2)"></path>
            <path d="M120,42 C122.694029,42.0140683 125.388059,42.6944164 128.082088,44.0410441 L240,100 L240,60 L128.931474,4.5 C126.09909,2.8333333 123.121932,2 120,2 C116.878068,2 113.869485,2.8376246 110.974253,4.5128737 L0,60 L0,100 L112.084987,43.9575065 C114.667633,42.6384338 117.305971,41.9859317 120,42 Z" id="Path-4" fill="#0783B1"></path>
        </g>
    </g>
</svg>